<mxfile host="app.diagrams.net" agent="Mozilla/5.0 (Windows NT 10.0; Win64; x64) AppleWebKit/537.36 (KHTML, like Gecko) Chrome/129.0.0.0 Safari/537.36 Edg/129.0.0.0" version="24.7.17">
  <diagram name="Page-1" id="P9Mk_I1uWZZs1Om8JCON">
    <mxGraphModel dx="1489" dy="1907" grid="1" gridSize="10" guides="1" tooltips="1" connect="1" arrows="1" fold="1" page="1" pageScale="1" pageWidth="850" pageHeight="1100" math="0" shadow="0">
      <root>
        <mxCell id="0" />
        <mxCell id="1" parent="0" />
        <mxCell id="1H7kt9l4Ecw2NMnJn66N-20" value="" style="edgeStyle=orthogonalEdgeStyle;rounded=0;orthogonalLoop=1;jettySize=auto;html=1;" edge="1" parent="1" source="1H7kt9l4Ecw2NMnJn66N-1" target="1H7kt9l4Ecw2NMnJn66N-18">
          <mxGeometry relative="1" as="geometry" />
        </mxCell>
        <mxCell id="1H7kt9l4Ecw2NMnJn66N-1" value="Start" style="ellipse;whiteSpace=wrap;html=1;" vertex="1" parent="1">
          <mxGeometry x="305" y="-20" width="120" height="60" as="geometry" />
        </mxCell>
        <mxCell id="1H7kt9l4Ecw2NMnJn66N-5" value="" style="edgeStyle=orthogonalEdgeStyle;rounded=0;orthogonalLoop=1;jettySize=auto;html=1;" edge="1" parent="1" source="1H7kt9l4Ecw2NMnJn66N-2" target="1H7kt9l4Ecw2NMnJn66N-4">
          <mxGeometry relative="1" as="geometry" />
        </mxCell>
        <mxCell id="1H7kt9l4Ecw2NMnJn66N-2" value="Nhap username&amp;nbsp;&lt;div&gt;va password&lt;/div&gt;" style="shape=parallelogram;perimeter=parallelogramPerimeter;whiteSpace=wrap;html=1;fixedSize=1;" vertex="1" parent="1">
          <mxGeometry x="300" y="180" width="130" height="60" as="geometry" />
        </mxCell>
        <mxCell id="1H7kt9l4Ecw2NMnJn66N-7" value="" style="edgeStyle=orthogonalEdgeStyle;rounded=0;orthogonalLoop=1;jettySize=auto;html=1;entryX=0;entryY=0.5;entryDx=0;entryDy=0;exitX=0.995;exitY=0.507;exitDx=0;exitDy=0;exitPerimeter=0;" edge="1" parent="1" source="1H7kt9l4Ecw2NMnJn66N-4" target="1H7kt9l4Ecw2NMnJn66N-6">
          <mxGeometry relative="1" as="geometry">
            <mxPoint x="442.5" y="332.5" as="sourcePoint" />
            <mxPoint x="540" y="332.5" as="targetPoint" />
          </mxGeometry>
        </mxCell>
        <mxCell id="1H7kt9l4Ecw2NMnJn66N-13" style="edgeStyle=orthogonalEdgeStyle;rounded=0;orthogonalLoop=1;jettySize=auto;html=1;entryX=0.5;entryY=0;entryDx=0;entryDy=0;" edge="1" parent="1" source="1H7kt9l4Ecw2NMnJn66N-4" target="1H7kt9l4Ecw2NMnJn66N-11">
          <mxGeometry relative="1" as="geometry" />
        </mxCell>
        <mxCell id="1H7kt9l4Ecw2NMnJn66N-4" value="Kiem tra co khop voi&lt;div&gt;CSDL hay khong&lt;/div&gt;" style="html=1;whiteSpace=wrap;aspect=fixed;shape=isoRectangle;" vertex="1" parent="1">
          <mxGeometry x="277.5" y="280" width="175" height="105" as="geometry" />
        </mxCell>
        <mxCell id="1H7kt9l4Ecw2NMnJn66N-31" style="edgeStyle=orthogonalEdgeStyle;rounded=0;orthogonalLoop=1;jettySize=auto;html=1;entryX=1;entryY=0.5;entryDx=0;entryDy=0;exitX=0.5;exitY=1;exitDx=0;exitDy=0;" edge="1" parent="1" source="1H7kt9l4Ecw2NMnJn66N-6" target="1H7kt9l4Ecw2NMnJn66N-29">
          <mxGeometry relative="1" as="geometry">
            <mxPoint x="600" y="750" as="targetPoint" />
            <Array as="points">
              <mxPoint x="600" y="730" />
            </Array>
          </mxGeometry>
        </mxCell>
        <mxCell id="1H7kt9l4Ecw2NMnJn66N-6" value="Dang nhap&amp;nbsp;&lt;div&gt;thanh cong&lt;/div&gt;" style="shape=parallelogram;perimeter=parallelogramPerimeter;whiteSpace=wrap;html=1;fixedSize=1;" vertex="1" parent="1">
          <mxGeometry x="540" y="302.5" width="120" height="60" as="geometry" />
        </mxCell>
        <mxCell id="1H7kt9l4Ecw2NMnJn66N-8" value="Hop le" style="text;html=1;align=center;verticalAlign=middle;whiteSpace=wrap;rounded=0;" vertex="1" parent="1">
          <mxGeometry x="470" y="310" width="60" height="30" as="geometry" />
        </mxCell>
        <mxCell id="1H7kt9l4Ecw2NMnJn66N-23" value="" style="edgeStyle=orthogonalEdgeStyle;rounded=0;orthogonalLoop=1;jettySize=auto;html=1;" edge="1" parent="1" source="1H7kt9l4Ecw2NMnJn66N-10" target="1H7kt9l4Ecw2NMnJn66N-22">
          <mxGeometry relative="1" as="geometry" />
        </mxCell>
        <mxCell id="1H7kt9l4Ecw2NMnJn66N-10" value="Count = Count + 1" style="rounded=0;whiteSpace=wrap;html=1;" vertex="1" parent="1">
          <mxGeometry x="305" y="560" width="120" height="60" as="geometry" />
        </mxCell>
        <mxCell id="1H7kt9l4Ecw2NMnJn66N-15" value="" style="edgeStyle=orthogonalEdgeStyle;rounded=0;orthogonalLoop=1;jettySize=auto;html=1;" edge="1" parent="1" source="1H7kt9l4Ecw2NMnJn66N-11" target="1H7kt9l4Ecw2NMnJn66N-10">
          <mxGeometry relative="1" as="geometry" />
        </mxCell>
        <mxCell id="1H7kt9l4Ecw2NMnJn66N-11" value="Dang nhap khong&amp;nbsp;&lt;div&gt;thanh cong&lt;/div&gt;" style="shape=parallelogram;perimeter=parallelogramPerimeter;whiteSpace=wrap;html=1;fixedSize=1;" vertex="1" parent="1">
          <mxGeometry x="297.5" y="450" width="135" height="60" as="geometry" />
        </mxCell>
        <mxCell id="1H7kt9l4Ecw2NMnJn66N-14" value="Khong hop le" style="text;html=1;align=center;verticalAlign=middle;whiteSpace=wrap;rounded=0;" vertex="1" parent="1">
          <mxGeometry x="350" y="400" width="110" height="30" as="geometry" />
        </mxCell>
        <mxCell id="1H7kt9l4Ecw2NMnJn66N-17" style="edgeStyle=orthogonalEdgeStyle;rounded=0;orthogonalLoop=1;jettySize=auto;html=1;exitX=0.5;exitY=1;exitDx=0;exitDy=0;" edge="1" parent="1" source="1H7kt9l4Ecw2NMnJn66N-1" target="1H7kt9l4Ecw2NMnJn66N-1">
          <mxGeometry relative="1" as="geometry" />
        </mxCell>
        <mxCell id="1H7kt9l4Ecw2NMnJn66N-19" value="" style="edgeStyle=orthogonalEdgeStyle;rounded=0;orthogonalLoop=1;jettySize=auto;html=1;" edge="1" parent="1" source="1H7kt9l4Ecw2NMnJn66N-18" target="1H7kt9l4Ecw2NMnJn66N-2">
          <mxGeometry relative="1" as="geometry" />
        </mxCell>
        <mxCell id="1H7kt9l4Ecw2NMnJn66N-18" value="Count = 0" style="rounded=0;whiteSpace=wrap;html=1;" vertex="1" parent="1">
          <mxGeometry x="305" y="90" width="120" height="50" as="geometry" />
        </mxCell>
        <mxCell id="1H7kt9l4Ecw2NMnJn66N-24" style="edgeStyle=orthogonalEdgeStyle;rounded=0;orthogonalLoop=1;jettySize=auto;html=1;entryX=0;entryY=0.5;entryDx=0;entryDy=0;exitX=0.507;exitY=0.02;exitDx=0;exitDy=0;exitPerimeter=0;" edge="1" parent="1" source="1H7kt9l4Ecw2NMnJn66N-22" target="1H7kt9l4Ecw2NMnJn66N-2">
          <mxGeometry relative="1" as="geometry">
            <Array as="points">
              <mxPoint x="166" y="210" />
            </Array>
          </mxGeometry>
        </mxCell>
        <mxCell id="1H7kt9l4Ecw2NMnJn66N-27" value="" style="edgeStyle=orthogonalEdgeStyle;rounded=0;orthogonalLoop=1;jettySize=auto;html=1;" edge="1" parent="1" source="1H7kt9l4Ecw2NMnJn66N-22" target="1H7kt9l4Ecw2NMnJn66N-26">
          <mxGeometry relative="1" as="geometry" />
        </mxCell>
        <mxCell id="1H7kt9l4Ecw2NMnJn66N-22" value="Count &amp;lt; 5" style="html=1;whiteSpace=wrap;aspect=fixed;shape=isoRectangle;" vertex="1" parent="1">
          <mxGeometry x="90" y="545" width="150" height="90" as="geometry" />
        </mxCell>
        <mxCell id="1H7kt9l4Ecw2NMnJn66N-25" value="Dung" style="text;html=1;align=center;verticalAlign=middle;whiteSpace=wrap;rounded=0;" vertex="1" parent="1">
          <mxGeometry x="110" y="317.5" width="60" height="30" as="geometry" />
        </mxCell>
        <mxCell id="1H7kt9l4Ecw2NMnJn66N-30" value="" style="edgeStyle=orthogonalEdgeStyle;rounded=0;orthogonalLoop=1;jettySize=auto;html=1;" edge="1" parent="1" source="1H7kt9l4Ecw2NMnJn66N-26" target="1H7kt9l4Ecw2NMnJn66N-29">
          <mxGeometry relative="1" as="geometry" />
        </mxCell>
        <mxCell id="1H7kt9l4Ecw2NMnJn66N-26" value="Khoa tai khoan" style="shape=parallelogram;perimeter=parallelogramPerimeter;whiteSpace=wrap;html=1;fixedSize=1;" vertex="1" parent="1">
          <mxGeometry x="105" y="700" width="120" height="60" as="geometry" />
        </mxCell>
        <mxCell id="1H7kt9l4Ecw2NMnJn66N-28" value="Sai" style="text;html=1;align=center;verticalAlign=middle;whiteSpace=wrap;rounded=0;" vertex="1" parent="1">
          <mxGeometry x="150" y="650" width="60" height="30" as="geometry" />
        </mxCell>
        <mxCell id="1H7kt9l4Ecw2NMnJn66N-29" value="End" style="ellipse;whiteSpace=wrap;html=1;" vertex="1" parent="1">
          <mxGeometry x="305" y="690" width="120" height="80" as="geometry" />
        </mxCell>
      </root>
    </mxGraphModel>
  </diagram>
</mxfile>
